<svg width="20" height="19" viewBox="0 0 20 19" fill="none" xmlns="http://www.w3.org/2000/svg">
<path d="M19.6376 3.13755L17.0641 1.10786C16.9844 1.04224 16.886 0.995361 16.7735 0.995361C16.661 0.995361 16.5579 1.04224 16.4782 1.11255L7.11726 13.1407C7.11726 13.1407 3.43757 9.60161 3.33445 9.49849C3.23132 9.39536 3.09539 9.22192 2.88914 9.22192C2.68289 9.22192 2.58914 9.36724 2.48132 9.47505C2.40164 9.55942 1.08914 10.9375 0.442261 11.6219C0.404761 11.6641 0.381323 11.6875 0.348511 11.7204C0.292261 11.8 0.254761 11.8891 0.254761 11.9875C0.254761 12.0907 0.292261 12.175 0.348511 12.2547L0.479761 12.3766C0.479761 12.3766 7.00945 18.6485 7.11726 18.7563C7.22507 18.8641 7.35632 19 7.54851 19C7.73601 19 7.8907 18.7985 7.97976 18.7094L19.6563 3.70942C19.7126 3.62974 19.7501 3.54067 19.7501 3.43755C19.7501 3.32036 19.7032 3.22192 19.6376 3.13755Z" fill="#E67E22"/>
</svg>
