<svg width="290" height="17" viewBox="0 0 290 17" fill="none" xmlns="http://www.w3.org/2000/svg">
<path d="M1.173 13C1.05967 13 0.963333 12.9603 0.884 12.881C0.804667 12.8017 0.765 12.7053 0.765 12.592V11.725C0.765 11.419 0.906667 11.1527 1.19 10.926L3.876 8.257C5.04333 7.339 5.85367 6.625 6.307 6.115C6.77167 5.59367 7.004 5.08367 7.004 4.585C7.004 4.05233 6.85667 3.633 6.562 3.327C6.27867 3.021 5.848 2.868 5.27 2.868C4.70333 2.868 4.25567 3.038 3.927 3.378C3.59833 3.70667 3.39433 4.13733 3.315 4.67C3.281 4.806 3.21867 4.908 3.128 4.976C3.03733 5.03267 2.93533 5.061 2.822 5.061H1.309C1.207 5.061 1.122 5.027 1.054 4.959C0.986 4.891 0.952 4.81167 0.952 4.721C0.974667 4.05233 1.156 3.429 1.496 2.851C1.836 2.26167 2.329 1.79133 2.975 1.44C3.621 1.07733 4.38033 0.896 5.253 0.896C6.15967 0.896 6.92467 1.05467 7.548 1.372C8.18267 1.678 8.65867 2.103 8.976 2.647C9.29333 3.191 9.452 3.80867 9.452 4.5C9.452 5.25933 9.23667 5.945 8.806 6.557C8.38667 7.169 7.74067 7.82633 6.868 8.529L4.454 10.977H9.299C9.42367 10.977 9.52 11.0167 9.588 11.096C9.66733 11.164 9.707 11.2603 9.707 11.385V12.592C9.707 12.7053 9.66733 12.8017 9.588 12.881C9.52 12.9603 9.42367 13 9.299 13H1.173ZM15.7274 13.187C14.7867 13.187 13.9764 13.0283 13.2964 12.711C12.6277 12.3937 12.1121 11.9743 11.7494 11.453C11.3981 10.9317 11.2111 10.3707 11.1884 9.77V9.736C11.1884 9.64533 11.2224 9.57167 11.2904 9.515C11.3584 9.45833 11.4434 9.43 11.5454 9.43H13.1264C13.3871 9.43 13.5571 9.54333 13.6364 9.77C13.7951 10.2687 14.0557 10.637 14.4184 10.875C14.7924 11.113 15.2287 11.232 15.7274 11.232C16.3621 11.232 16.8891 11.0393 17.3084 10.654C17.7391 10.2687 17.9544 9.73033 17.9544 9.039C17.9544 8.427 17.7391 7.92833 17.3084 7.543C16.8891 7.15767 16.3621 6.965 15.7274 6.965C15.3874 6.965 15.1097 7.01033 14.8944 7.101C14.6791 7.19167 14.4694 7.31633 14.2654 7.475C14.1294 7.577 14.0217 7.65067 13.9424 7.696C13.8744 7.73 13.7894 7.747 13.6874 7.747H12.1234C12.0214 7.747 11.9307 7.713 11.8514 7.645C11.7834 7.56567 11.7494 7.475 11.7494 7.373L12.3444 1.559C12.3557 1.423 12.4011 1.31533 12.4804 1.236C12.5711 1.14533 12.6844 1.1 12.8204 1.1H19.2124C19.3257 1.1 19.4221 1.13967 19.5014 1.219C19.5807 1.29833 19.6204 1.39467 19.6204 1.508V2.647C19.6204 2.76033 19.5807 2.85667 19.5014 2.936C19.4221 3.01533 19.3257 3.055 19.2124 3.055H14.2994L14.0274 5.826C14.5827 5.44067 15.3251 5.248 16.2544 5.248C16.9911 5.248 17.6711 5.40667 18.2944 5.724C18.9291 6.03 19.4334 6.47767 19.8074 7.067C20.1814 7.645 20.3684 8.31933 20.3684 9.09C20.3684 9.91733 20.1757 10.6427 19.7904 11.266C19.4051 11.878 18.8611 12.354 18.1584 12.694C17.4671 13.0227 16.6567 13.187 15.7274 13.187ZM26.6434 13.17C25.136 13.17 24.0084 12.7507 23.2604 11.912C22.5237 11.0733 22.1214 9.974 22.0534 8.614C22.042 8.308 22.0364 7.78667 22.0364 7.05C22.0364 6.302 22.042 5.76933 22.0534 5.452C22.11 4.11467 22.518 3.02667 23.2774 2.188C24.0367 1.34933 25.1587 0.929999 26.6434 0.929999C28.1394 0.929999 29.267 1.34933 30.0264 2.188C30.7857 3.02667 31.1881 4.11467 31.2334 5.452C31.2561 5.76933 31.2674 6.302 31.2674 7.05C31.2674 7.78667 31.2561 8.308 31.2334 8.614C31.1767 9.974 30.7744 11.0733 30.0264 11.912C29.2897 12.7507 28.162 13.17 26.6434 13.17ZM26.6434 11.215C27.3574 11.215 27.89 10.9827 28.2414 10.518C28.5927 10.042 28.7797 9.379 28.8024 8.529C28.825 7.87167 28.8364 7.373 28.8364 7.033C28.8364 6.659 28.825 6.166 28.8024 5.554C28.7797 4.71533 28.5927 4.058 28.2414 3.582C27.89 3.106 27.3574 2.868 26.6434 2.868C25.9407 2.868 25.408 3.106 25.0454 3.582C24.694 4.058 24.507 4.71533 24.4844 5.554C24.473 5.86 24.4674 6.353 24.4674 7.033C24.4674 7.70167 24.473 8.20033 24.4844 8.529C24.507 9.379 24.694 10.042 25.0454 10.518C25.408 10.9827 25.9407 11.215 26.6434 11.215ZM33.0776 14.275C32.9756 14.275 32.8963 14.241 32.8396 14.173C32.783 14.105 32.7603 14.02 32.7716 13.918L33.2306 11.028C33.2533 10.8693 33.31 10.739 33.4006 10.637C33.4913 10.535 33.616 10.484 33.7746 10.484H35.3386C35.418 10.484 35.486 10.518 35.5426 10.586C35.6106 10.6427 35.6446 10.7163 35.6446 10.807C35.6446 10.8637 35.6276 10.9373 35.5936 11.028L34.5056 13.85C34.449 13.986 34.3753 14.088 34.2846 14.156C34.2053 14.2353 34.092 14.275 33.9446 14.275H33.0776ZM41.9334 13.17C40.4261 13.17 39.2984 12.7507 38.5504 11.912C37.8138 11.0733 37.4114 9.974 37.3434 8.614C37.3321 8.308 37.3264 7.78667 37.3264 7.05C37.3264 6.302 37.3321 5.76933 37.3434 5.452C37.4001 4.11467 37.8081 3.02667 38.5674 2.188C39.3268 1.34933 40.4488 0.929999 41.9334 0.929999C43.4294 0.929999 44.5571 1.34933 45.3164 2.188C46.0758 3.02667 46.4781 4.11467 46.5234 5.452C46.5461 5.76933 46.5574 6.302 46.5574 7.05C46.5574 7.78667 46.5461 8.308 46.5234 8.614C46.4668 9.974 46.0644 11.0733 45.3164 11.912C44.5798 12.7507 43.4521 13.17 41.9334 13.17ZM41.9334 11.215C42.6474 11.215 43.1801 10.9827 43.5314 10.518C43.8828 10.042 44.0698 9.379 44.0924 8.529C44.1151 7.87167 44.1264 7.373 44.1264 7.033C44.1264 6.659 44.1151 6.166 44.0924 5.554C44.0698 4.71533 43.8828 4.058 43.5314 3.582C43.1801 3.106 42.6474 2.868 41.9334 2.868C41.2308 2.868 40.6981 3.106 40.3354 3.582C39.9841 4.058 39.7971 4.71533 39.7744 5.554C39.7631 5.86 39.7574 6.353 39.7574 7.033C39.7574 7.70167 39.7631 8.20033 39.7744 8.529C39.7971 9.379 39.9841 10.042 40.3354 10.518C40.6981 10.9827 41.2308 11.215 41.9334 11.215ZM53.1063 13.17C51.5989 13.17 50.4713 12.7507 49.7233 11.912C48.9866 11.0733 48.5843 9.974 48.5163 8.614C48.5049 8.308 48.4993 7.78667 48.4993 7.05C48.4993 6.302 48.5049 5.76933 48.5163 5.452C48.5729 4.11467 48.9809 3.02667 49.7403 2.188C50.4996 1.34933 51.6216 0.929999 53.1063 0.929999C54.6023 0.929999 55.7299 1.34933 56.4893 2.188C57.2486 3.02667 57.6509 4.11467 57.6963 5.452C57.7189 5.76933 57.7303 6.302 57.7303 7.05C57.7303 7.78667 57.7189 8.308 57.6963 8.614C57.6396 9.974 57.2373 11.0733 56.4893 11.912C55.7526 12.7507 54.6249 13.17 53.1063 13.17ZM53.1063 11.215C53.8203 11.215 54.3529 10.9827 54.7043 10.518C55.0556 10.042 55.2426 9.379 55.2653 8.529C55.2879 7.87167 55.2993 7.373 55.2993 7.033C55.2993 6.659 55.2879 6.166 55.2653 5.554C55.2426 4.71533 55.0556 4.058 54.7043 3.582C54.3529 3.106 53.8203 2.868 53.1063 2.868C52.4036 2.868 51.8709 3.106 51.5083 3.582C51.1569 4.058 50.9699 4.71533 50.9473 5.554C50.9359 5.86 50.9303 6.353 50.9303 7.033C50.9303 7.70167 50.9359 8.20033 50.9473 8.529C50.9699 9.379 51.1569 10.042 51.5083 10.518C51.8709 10.9827 52.4036 11.215 53.1063 11.215ZM64.2791 13.17C62.7718 13.17 61.6441 12.7507 60.8961 11.912C60.1595 11.0733 59.7571 9.974 59.6891 8.614C59.6778 8.308 59.6721 7.78667 59.6721 7.05C59.6721 6.302 59.6778 5.76933 59.6891 5.452C59.7458 4.11467 60.1538 3.02667 60.9131 2.188C61.6725 1.34933 62.7945 0.929999 64.2791 0.929999C65.7751 0.929999 66.9028 1.34933 67.6621 2.188C68.4215 3.02667 68.8238 4.11467 68.8691 5.452C68.8918 5.76933 68.9031 6.302 68.9031 7.05C68.9031 7.78667 68.8918 8.308 68.8691 8.614C68.8125 9.974 68.4101 11.0733 67.6621 11.912C66.9255 12.7507 65.7978 13.17 64.2791 13.17ZM64.2791 11.215C64.9931 11.215 65.5258 10.9827 65.8771 10.518C66.2285 10.042 66.4155 9.379 66.4381 8.529C66.4608 7.87167 66.4721 7.373 66.4721 7.033C66.4721 6.659 66.4608 6.166 66.4381 5.554C66.4155 4.71533 66.2285 4.058 65.8771 3.582C65.5258 3.106 64.9931 2.868 64.2791 2.868C63.5765 2.868 63.0438 3.106 62.6811 3.582C62.3298 4.058 62.1428 4.71533 62.1201 5.554C62.1088 5.86 62.1031 6.353 62.1031 7.033C62.1031 7.70167 62.1088 8.20033 62.1201 8.529C62.1428 9.379 62.3298 10.042 62.6811 10.518C63.0438 10.9827 63.5765 11.215 64.2791 11.215ZM74.602 12.439C74.4886 12.439 74.3923 12.3993 74.313 12.32C74.2336 12.2407 74.194 12.1443 74.194 12.031V8.716H70.93C70.8166 8.716 70.7203 8.67633 70.641 8.597C70.5616 8.51767 70.522 8.41567 70.522 8.291V7.407C70.522 7.28233 70.5616 7.186 70.641 7.118C70.7203 7.03867 70.8166 6.999 70.93 6.999H74.194V3.769C74.194 3.64433 74.2336 3.548 74.313 3.48C74.3923 3.40067 74.4886 3.361 74.602 3.361H75.588C75.7126 3.361 75.809 3.40067 75.877 3.48C75.9563 3.548 75.996 3.64433 75.996 3.769V6.999H79.26C79.3846 6.999 79.481 7.03867 79.549 7.118C79.6283 7.186 79.668 7.28233 79.668 7.407V8.291C79.668 8.41567 79.6283 8.51767 79.549 8.597C79.4696 8.67633 79.3733 8.716 79.26 8.716H75.996V12.031C75.996 12.1443 75.9563 12.2407 75.877 12.32C75.809 12.3993 75.7126 12.439 75.588 12.439H74.602Z" fill="#E67E22"/>
<path d="M85.7331 13C85.6198 13 85.5235 12.9603 85.4441 12.881C85.3648 12.8017 85.3251 12.7053 85.3251 12.592V4.568C85.3251 4.45467 85.3648 4.35833 85.4441 4.279C85.5235 4.19967 85.6198 4.16 85.7331 4.16H87.0591C87.1725 4.16 87.2688 4.19967 87.3481 4.279C87.4275 4.35833 87.4671 4.45467 87.4671 4.568V5.146C88.0565 4.37533 88.8781 3.99 89.9321 3.99C91.1901 3.99 92.0685 4.49433 92.5671 5.503C92.8391 5.04967 93.2245 4.687 93.7231 4.415C94.2218 4.13167 94.7601 3.99 95.3381 3.99C96.2675 3.99 97.0268 4.30733 97.6161 4.942C98.2055 5.57667 98.5001 6.50033 98.5001 7.713V12.592C98.5001 12.7053 98.4605 12.8017 98.3811 12.881C98.3131 12.9603 98.2168 13 98.0921 13H96.6981C96.5848 13 96.4885 12.9603 96.4091 12.881C96.3298 12.8017 96.2901 12.7053 96.2901 12.592V7.849C96.2901 7.135 96.1371 6.61933 95.8311 6.302C95.5365 5.97333 95.1398 5.809 94.6411 5.809C94.1991 5.809 93.8195 5.97333 93.5021 6.302C93.1961 6.63067 93.0431 7.14633 93.0431 7.849V12.592C93.0431 12.7053 93.0035 12.8017 92.9241 12.881C92.8448 12.9603 92.7485 13 92.6351 13H91.2411C91.1278 13 91.0315 12.9603 90.9521 12.881C90.8728 12.8017 90.8331 12.7053 90.8331 12.592V7.849C90.8331 7.135 90.6745 6.61933 90.3571 6.302C90.0511 5.97333 89.6601 5.809 89.1841 5.809C88.7308 5.809 88.3455 5.97333 88.0281 6.302C87.7221 6.63067 87.5691 7.14633 87.5691 7.849V12.592C87.5691 12.7053 87.5295 12.8017 87.4501 12.881C87.3708 12.9603 87.2745 13 87.1611 13H85.7331ZM104.473 13.17C103.215 13.17 102.212 12.8073 101.464 12.082C100.727 11.3453 100.336 10.314 100.291 8.988L100.274 8.563L100.291 8.138C100.348 6.846 100.744 5.83167 101.481 5.095C102.229 4.35833 103.226 3.99 104.473 3.99C105.81 3.99 106.842 4.398 107.567 5.214C108.304 6.03 108.672 7.118 108.672 8.478V8.835C108.672 8.94833 108.632 9.04467 108.553 9.124C108.474 9.20333 108.372 9.243 108.247 9.243H102.603V9.379C102.626 10.0023 102.796 10.5293 103.113 10.96C103.442 11.3793 103.889 11.589 104.456 11.589C105.125 11.589 105.663 11.3283 106.071 10.807C106.173 10.6823 106.252 10.603 106.309 10.569C106.377 10.535 106.473 10.518 106.598 10.518H108.06C108.162 10.518 108.247 10.552 108.315 10.62C108.394 10.6767 108.434 10.7503 108.434 10.841C108.434 11.113 108.27 11.436 107.941 11.81C107.624 12.1727 107.165 12.49 106.564 12.762C105.963 13.034 105.266 13.17 104.473 13.17ZM106.36 7.815V7.764C106.36 7.09533 106.19 6.557 105.85 6.149C105.521 5.741 105.062 5.537 104.473 5.537C103.884 5.537 103.425 5.741 103.096 6.149C102.767 6.557 102.603 7.09533 102.603 7.764V7.815H106.36ZM113.043 13.17C112.465 13.17 111.933 13.0567 111.445 12.83C110.969 12.592 110.59 12.2747 110.306 11.878C110.034 11.4813 109.898 11.045 109.898 10.569C109.898 9.79833 110.21 9.175 110.833 8.699C111.457 8.223 112.312 7.9 113.4 7.73L115.729 7.39V7.033C115.729 6.53433 115.605 6.16033 115.355 5.911C115.106 5.66167 114.704 5.537 114.148 5.537C113.774 5.537 113.468 5.61067 113.23 5.758C113.004 5.894 112.822 6.03 112.686 6.166C112.55 6.31333 112.46 6.40967 112.414 6.455C112.369 6.591 112.284 6.659 112.159 6.659H110.85C110.748 6.659 110.658 6.625 110.578 6.557C110.51 6.489 110.476 6.39833 110.476 6.285C110.488 6.00167 110.624 5.67867 110.884 5.316C111.156 4.95333 111.57 4.64167 112.125 4.381C112.681 4.12033 113.361 3.99 114.165 3.99C115.503 3.99 116.477 4.29033 117.089 4.891C117.701 5.49167 118.007 6.27933 118.007 7.254V12.592C118.007 12.7053 117.968 12.8017 117.888 12.881C117.82 12.9603 117.724 13 117.599 13H116.222C116.109 13 116.013 12.9603 115.933 12.881C115.854 12.8017 115.814 12.7053 115.814 12.592V11.929C115.565 12.2917 115.208 12.592 114.743 12.83C114.29 13.0567 113.723 13.17 113.043 13.17ZM113.621 11.555C114.245 11.555 114.755 11.351 115.151 10.943C115.548 10.535 115.746 9.94 115.746 9.158V8.801L114.046 9.073C113.389 9.175 112.89 9.33933 112.55 9.566C112.222 9.79267 112.057 10.0703 112.057 10.399C112.057 10.7617 112.21 11.045 112.516 11.249C112.822 11.453 113.191 11.555 113.621 11.555ZM120.613 13C120.5 13 120.404 12.9603 120.324 12.881C120.245 12.8017 120.205 12.7053 120.205 12.592V1.338C120.205 1.21333 120.245 1.117 120.324 1.049C120.404 0.969666 120.5 0.929999 120.613 0.929999H122.024C122.149 0.929999 122.245 0.969666 122.313 1.049C122.393 1.117 122.432 1.21333 122.432 1.338V12.592C122.432 12.7053 122.393 12.8017 122.313 12.881C122.245 12.9603 122.149 13 122.024 13H120.613ZM128.036 13.17C127.186 13.17 126.472 13.0453 125.894 12.796C125.316 12.5353 124.886 12.235 124.602 11.895C124.33 11.5437 124.194 11.2433 124.194 10.994C124.194 10.8807 124.234 10.79 124.313 10.722C124.393 10.654 124.483 10.62 124.585 10.62H125.928C126.03 10.62 126.115 10.6597 126.183 10.739C126.229 10.773 126.348 10.875 126.54 11.045C126.733 11.2263 126.96 11.368 127.22 11.47C127.481 11.572 127.77 11.623 128.087 11.623C128.541 11.623 128.915 11.5323 129.209 11.351C129.504 11.1697 129.651 10.9203 129.651 10.603C129.651 10.365 129.583 10.1723 129.447 10.025C129.323 9.87767 129.09 9.74733 128.75 9.634C128.41 9.50933 127.906 9.379 127.237 9.243C126.274 9.039 125.56 8.72733 125.095 8.308C124.642 7.88867 124.415 7.33333 124.415 6.642C124.415 6.18867 124.551 5.76367 124.823 5.367C125.095 4.959 125.498 4.63033 126.03 4.381C126.574 4.12033 127.22 3.99 127.968 3.99C128.728 3.99 129.385 4.11467 129.94 4.364C130.496 4.602 130.915 4.891 131.198 5.231C131.493 5.55967 131.64 5.85433 131.64 6.115C131.64 6.217 131.601 6.30767 131.521 6.387C131.453 6.455 131.368 6.489 131.266 6.489H130.008C129.918 6.489 129.821 6.44933 129.719 6.37C129.64 6.31333 129.515 6.20567 129.345 6.047C129.175 5.88833 128.977 5.76367 128.75 5.673C128.524 5.58233 128.257 5.537 127.951 5.537C127.532 5.537 127.203 5.62767 126.965 5.809C126.739 5.99033 126.625 6.22833 126.625 6.523C126.625 6.73833 126.682 6.914 126.795 7.05C126.909 7.186 127.13 7.31633 127.458 7.441C127.787 7.56567 128.28 7.69033 128.937 7.815C130.025 8.03033 130.802 8.36467 131.266 8.818C131.742 9.27133 131.98 9.82667 131.98 10.484C131.98 11.2773 131.635 11.9233 130.943 12.422C130.252 12.9207 129.283 13.17 128.036 13.17ZM140.901 13.17C139.756 13.17 138.878 12.8017 138.266 12.065C137.654 11.3283 137.325 10.348 137.28 9.124L137.263 8.563L137.28 8.019C137.314 6.829 137.637 5.86 138.249 5.112C138.872 4.364 139.756 3.99 140.901 3.99C142 3.99 142.873 4.364 143.519 5.112V1.338C143.519 1.21333 143.559 1.117 143.638 1.049C143.717 0.969666 143.814 0.929999 143.927 0.929999H145.372C145.497 0.929999 145.593 0.969666 145.661 1.049C145.74 1.117 145.78 1.21333 145.78 1.338V12.592C145.78 12.7053 145.74 12.8017 145.661 12.881C145.593 12.9603 145.497 13 145.372 13H144.029C143.916 13 143.819 12.9603 143.74 12.881C143.661 12.8017 143.621 12.7053 143.621 12.592V11.963C142.975 12.7677 142.068 13.17 140.901 13.17ZM141.53 11.351C142.187 11.351 142.675 11.1413 142.992 10.722C143.309 10.3027 143.485 9.787 143.519 9.175C143.53 9.039 143.536 8.818 143.536 8.512C143.536 8.21733 143.53 8.002 143.519 7.866C143.496 7.29933 143.315 6.81767 142.975 6.421C142.646 6.013 142.165 5.809 141.53 5.809C140.306 5.809 139.654 6.56267 139.575 8.07L139.558 8.58L139.575 9.09C139.654 10.5973 140.306 11.351 141.53 11.351ZM151.854 13.17C150.596 13.17 149.593 12.8073 148.845 12.082C148.108 11.3453 147.717 10.314 147.672 8.988L147.655 8.563L147.672 8.138C147.728 6.846 148.125 5.83167 148.862 5.095C149.61 4.35833 150.607 3.99 151.854 3.99C153.191 3.99 154.222 4.398 154.948 5.214C155.684 6.03 156.053 7.118 156.053 8.478V8.835C156.053 8.94833 156.013 9.04467 155.934 9.124C155.854 9.20333 155.752 9.243 155.628 9.243H149.984V9.379C150.006 10.0023 150.176 10.5293 150.494 10.96C150.822 11.3793 151.27 11.589 151.837 11.589C152.505 11.589 153.044 11.3283 153.452 10.807C153.554 10.6823 153.633 10.603 153.69 10.569C153.758 10.535 153.854 10.518 153.979 10.518H155.441C155.543 10.518 155.628 10.552 155.696 10.62C155.775 10.6767 155.815 10.7503 155.815 10.841C155.815 11.113 155.65 11.436 155.322 11.81C155.004 12.1727 154.545 12.49 153.945 12.762C153.344 13.034 152.647 13.17 151.854 13.17ZM153.741 7.815V7.764C153.741 7.09533 153.571 6.557 153.231 6.149C152.902 5.741 152.443 5.537 151.854 5.537C151.264 5.537 150.805 5.741 150.477 6.149C150.148 6.557 149.984 7.09533 149.984 7.764V7.815H153.741ZM158.282 13C158.169 13 158.073 12.9603 157.993 12.881C157.914 12.8017 157.874 12.7053 157.874 12.592V1.338C157.874 1.21333 157.914 1.117 157.993 1.049C158.073 0.969666 158.169 0.929999 158.282 0.929999H159.693C159.818 0.929999 159.914 0.969666 159.982 1.049C160.062 1.117 160.101 1.21333 160.101 1.338V12.592C160.101 12.7053 160.062 12.8017 159.982 12.881C159.914 12.9603 159.818 13 159.693 13H158.282ZM162.696 2.698C162.583 2.698 162.487 2.65833 162.407 2.579C162.328 2.49967 162.288 2.40333 162.288 2.29V1.066C162.288 0.952666 162.328 0.856333 162.407 0.776999C162.487 0.697666 162.583 0.658 162.696 0.658H164.243C164.357 0.658 164.453 0.697666 164.532 0.776999C164.623 0.856333 164.668 0.952666 164.668 1.066V2.29C164.668 2.40333 164.629 2.49967 164.549 2.579C164.47 2.65833 164.368 2.698 164.243 2.698H162.696ZM162.764 13C162.651 13 162.555 12.9603 162.475 12.881C162.396 12.8017 162.356 12.7053 162.356 12.592V4.568C162.356 4.45467 162.396 4.35833 162.475 4.279C162.555 4.19967 162.651 4.16 162.764 4.16H164.175C164.3 4.16 164.396 4.19967 164.464 4.279C164.544 4.347 164.583 4.44333 164.583 4.568V12.592C164.583 12.7053 164.544 12.8017 164.464 12.881C164.396 12.9603 164.3 13 164.175 13H162.764ZM169.967 13C169.797 13 169.666 12.966 169.576 12.898C169.485 12.8187 169.411 12.711 169.355 12.575L166.176 4.687L166.142 4.534C166.142 4.432 166.176 4.347 166.244 4.279C166.323 4.19967 166.414 4.16 166.516 4.16H167.893C168.108 4.16 168.255 4.26767 168.335 4.483L170.596 10.45L172.857 4.483C172.891 4.40367 172.942 4.33 173.01 4.262C173.089 4.194 173.185 4.16 173.299 4.16H174.693C174.783 4.16 174.863 4.19967 174.931 4.279C175.01 4.347 175.05 4.432 175.05 4.534C175.05 4.602 175.044 4.653 175.033 4.687L171.837 12.575C171.78 12.711 171.706 12.8187 171.616 12.898C171.525 12.966 171.395 13 171.225 13H169.967ZM180.093 13.17C178.835 13.17 177.832 12.8073 177.084 12.082C176.347 11.3453 175.956 10.314 175.911 8.988L175.894 8.563L175.911 8.138C175.968 6.846 176.364 5.83167 177.101 5.095C177.849 4.35833 178.846 3.99 180.093 3.99C181.43 3.99 182.462 4.398 183.187 5.214C183.924 6.03 184.292 7.118 184.292 8.478V8.835C184.292 8.94833 184.252 9.04467 184.173 9.124C184.094 9.20333 183.992 9.243 183.867 9.243H178.223V9.379C178.246 10.0023 178.416 10.5293 178.733 10.96C179.062 11.3793 179.509 11.589 180.076 11.589C180.745 11.589 181.283 11.3283 181.691 10.807C181.793 10.6823 181.872 10.603 181.929 10.569C181.997 10.535 182.093 10.518 182.218 10.518H183.68C183.782 10.518 183.867 10.552 183.935 10.62C184.014 10.6767 184.054 10.7503 184.054 10.841C184.054 11.113 183.89 11.436 183.561 11.81C183.244 12.1727 182.785 12.49 182.184 12.762C181.583 13.034 180.886 13.17 180.093 13.17ZM181.98 7.815V7.764C181.98 7.09533 181.81 6.557 181.47 6.149C181.141 5.741 180.682 5.537 180.093 5.537C179.504 5.537 179.045 5.741 178.716 6.149C178.387 6.557 178.223 7.09533 178.223 7.764V7.815H181.98ZM186.505 13C186.391 13 186.295 12.9603 186.216 12.881C186.136 12.8017 186.097 12.7053 186.097 12.592V4.585C186.097 4.47167 186.136 4.37533 186.216 4.296C186.295 4.20533 186.391 4.16 186.505 4.16H187.882C188.006 4.16 188.108 4.19967 188.188 4.279C188.267 4.35833 188.307 4.46033 188.307 4.585V5.282C188.579 4.91933 188.919 4.64167 189.327 4.449C189.746 4.25633 190.222 4.16 190.755 4.16H191.452C191.576 4.16 191.673 4.19967 191.741 4.279C191.82 4.347 191.86 4.44333 191.86 4.568V5.792C191.86 5.90533 191.82 6.00167 191.741 6.081C191.673 6.16033 191.576 6.2 191.452 6.2H190.126C189.593 6.2 189.174 6.353 188.868 6.659C188.562 6.965 188.409 7.38433 188.409 7.917V12.592C188.409 12.7053 188.369 12.8017 188.29 12.881C188.21 12.9603 188.108 13 187.984 13H186.505ZM196.877 13.17C195.619 13.17 194.616 12.8073 193.868 12.082C193.132 11.3453 192.741 10.314 192.695 8.988L192.678 8.563L192.695 8.138C192.752 6.846 193.149 5.83167 193.885 5.095C194.633 4.35833 195.631 3.99 196.877 3.99C198.215 3.99 199.246 4.398 199.971 5.214C200.708 6.03 201.076 7.118 201.076 8.478V8.835C201.076 8.94833 201.037 9.04467 200.957 9.124C200.878 9.20333 200.776 9.243 200.651 9.243H195.007V9.379C195.03 10.0023 195.2 10.5293 195.517 10.96C195.846 11.3793 196.294 11.589 196.86 11.589C197.529 11.589 198.067 11.3283 198.475 10.807C198.577 10.6823 198.657 10.603 198.713 10.569C198.781 10.535 198.878 10.518 199.002 10.518H200.464C200.566 10.518 200.651 10.552 200.719 10.62C200.799 10.6767 200.838 10.7503 200.838 10.841C200.838 11.113 200.674 11.436 200.345 11.81C200.028 12.1727 199.569 12.49 198.968 12.762C198.368 13.034 197.671 13.17 196.877 13.17ZM198.764 7.815V7.764C198.764 7.09533 198.594 6.557 198.254 6.149C197.926 5.741 197.467 5.537 196.877 5.537C196.288 5.537 195.829 5.741 195.5 6.149C195.172 6.557 195.007 7.09533 195.007 7.764V7.815H198.764ZM206.162 13.17C205.017 13.17 204.139 12.8017 203.527 12.065C202.915 11.3283 202.586 10.348 202.541 9.124L202.524 8.563L202.541 8.019C202.575 6.829 202.898 5.86 203.51 5.112C204.133 4.364 205.017 3.99 206.162 3.99C207.261 3.99 208.134 4.364 208.78 5.112V1.338C208.78 1.21333 208.819 1.117 208.899 1.049C208.978 0.969666 209.074 0.929999 209.188 0.929999H210.633C210.757 0.929999 210.854 0.969666 210.922 1.049C211.001 1.117 211.041 1.21333 211.041 1.338V12.592C211.041 12.7053 211.001 12.8017 210.922 12.881C210.854 12.9603 210.757 13 210.633 13H209.29C209.176 13 209.08 12.9603 209.001 12.881C208.921 12.8017 208.882 12.7053 208.882 12.592V11.963C208.236 12.7677 207.329 13.17 206.162 13.17ZM206.791 11.351C207.448 11.351 207.935 11.1413 208.253 10.722C208.57 10.3027 208.746 9.787 208.78 9.175C208.791 9.039 208.797 8.818 208.797 8.512C208.797 8.21733 208.791 8.002 208.78 7.866C208.757 7.29933 208.576 6.81767 208.236 6.421C207.907 6.013 207.425 5.809 206.791 5.809C205.567 5.809 204.915 6.56267 204.836 8.07L204.819 8.58L204.836 9.09C204.915 10.5973 205.567 11.351 206.791 11.351ZM217.616 13C217.503 13 217.407 12.9603 217.327 12.881C217.248 12.8017 217.208 12.7053 217.208 12.592V1.338C217.208 1.21333 217.248 1.117 217.327 1.049C217.407 0.969666 217.503 0.929999 217.616 0.929999H219.027C219.152 0.929999 219.248 0.969666 219.316 1.049C219.396 1.117 219.435 1.21333 219.435 1.338V12.592C219.435 12.7053 219.396 12.8017 219.316 12.881C219.248 12.9603 219.152 13 219.027 13H217.616ZM224.257 13.17C223.679 13.17 223.147 13.0567 222.659 12.83C222.183 12.592 221.804 12.2747 221.52 11.878C221.248 11.4813 221.112 11.045 221.112 10.569C221.112 9.79833 221.424 9.175 222.047 8.699C222.671 8.223 223.526 7.9 224.614 7.73L226.943 7.39V7.033C226.943 6.53433 226.819 6.16033 226.569 5.911C226.32 5.66167 225.918 5.537 225.362 5.537C224.988 5.537 224.682 5.61067 224.444 5.758C224.218 5.894 224.036 6.03 223.9 6.166C223.764 6.31333 223.674 6.40967 223.628 6.455C223.583 6.591 223.498 6.659 223.373 6.659H222.064C221.962 6.659 221.872 6.625 221.792 6.557C221.724 6.489 221.69 6.39833 221.69 6.285C221.702 6.00167 221.838 5.67867 222.098 5.316C222.37 4.95333 222.784 4.64167 223.339 4.381C223.895 4.12033 224.575 3.99 225.379 3.99C226.717 3.99 227.691 4.29033 228.303 4.891C228.915 5.49167 229.221 6.27933 229.221 7.254V12.592C229.221 12.7053 229.182 12.8017 229.102 12.881C229.034 12.9603 228.938 13 228.813 13H227.436C227.323 13 227.227 12.9603 227.147 12.881C227.068 12.8017 227.028 12.7053 227.028 12.592V11.929C226.779 12.2917 226.422 12.592 225.957 12.83C225.504 13.0567 224.937 13.17 224.257 13.17ZM224.835 11.555C225.459 11.555 225.969 11.351 226.365 10.943C226.762 10.535 226.96 9.94 226.96 9.158V8.801L225.26 9.073C224.603 9.175 224.104 9.33933 223.764 9.566C223.436 9.79267 223.271 10.0703 223.271 10.399C223.271 10.7617 223.424 11.045 223.73 11.249C224.036 11.453 224.405 11.555 224.835 11.555ZM234.751 13.17C233.901 13.17 233.187 13.0453 232.609 12.796C232.031 12.5353 231.601 12.235 231.317 11.895C231.045 11.5437 230.909 11.2433 230.909 10.994C230.909 10.8807 230.949 10.79 231.028 10.722C231.108 10.654 231.198 10.62 231.3 10.62H232.643C232.745 10.62 232.83 10.6597 232.898 10.739C232.944 10.773 233.063 10.875 233.255 11.045C233.448 11.2263 233.675 11.368 233.935 11.47C234.196 11.572 234.485 11.623 234.802 11.623C235.256 11.623 235.63 11.5323 235.924 11.351C236.219 11.1697 236.366 10.9203 236.366 10.603C236.366 10.365 236.298 10.1723 236.162 10.025C236.038 9.87767 235.805 9.74733 235.465 9.634C235.125 9.50933 234.621 9.379 233.952 9.243C232.989 9.039 232.275 8.72733 231.81 8.308C231.357 7.88867 231.13 7.33333 231.13 6.642C231.13 6.18867 231.266 5.76367 231.538 5.367C231.81 4.959 232.213 4.63033 232.745 4.381C233.289 4.12033 233.935 3.99 234.683 3.99C235.443 3.99 236.1 4.11467 236.655 4.364C237.211 4.602 237.63 4.891 237.913 5.231C238.208 5.55967 238.355 5.85433 238.355 6.115C238.355 6.217 238.316 6.30767 238.236 6.387C238.168 6.455 238.083 6.489 237.981 6.489H236.723C236.633 6.489 236.536 6.44933 236.434 6.37C236.355 6.31333 236.23 6.20567 236.06 6.047C235.89 5.88833 235.692 5.76367 235.465 5.673C235.239 5.58233 234.972 5.537 234.666 5.537C234.247 5.537 233.918 5.62767 233.68 5.809C233.454 5.99033 233.34 6.22833 233.34 6.523C233.34 6.73833 233.397 6.914 233.51 7.05C233.624 7.186 233.845 7.31633 234.173 7.441C234.502 7.56567 234.995 7.69033 235.652 7.815C236.74 8.03033 237.517 8.36467 237.981 8.818C238.457 9.27133 238.695 9.82667 238.695 10.484C238.695 11.2773 238.35 11.9233 237.658 12.422C236.967 12.9207 235.998 13.17 234.751 13.17ZM244.412 13C243.381 13 242.604 12.7337 242.083 12.201C241.573 11.657 241.318 10.8637 241.318 9.821V5.962H239.975C239.862 5.962 239.765 5.92233 239.686 5.843C239.607 5.75233 239.567 5.65033 239.567 5.537V4.568C239.567 4.45467 239.607 4.35833 239.686 4.279C239.765 4.19967 239.862 4.16 239.975 4.16H241.318V1.338C241.318 1.21333 241.358 1.117 241.437 1.049C241.516 0.969666 241.613 0.929999 241.726 0.929999H243.103C243.228 0.929999 243.324 0.969666 243.392 1.049C243.471 1.117 243.511 1.21333 243.511 1.338V4.16H245.636C245.761 4.16 245.857 4.19967 245.925 4.279C246.004 4.347 246.044 4.44333 246.044 4.568V5.537C246.044 5.66167 246.004 5.76367 245.925 5.843C245.846 5.92233 245.749 5.962 245.636 5.962H243.511V9.651C243.511 10.1383 243.596 10.5067 243.766 10.756C243.936 11.0053 244.219 11.13 244.616 11.13H245.789C245.902 11.13 245.999 11.1697 246.078 11.249C246.157 11.3283 246.197 11.4247 246.197 11.538V12.592C246.197 12.7053 246.157 12.8017 246.078 12.881C246.01 12.9603 245.914 13 245.789 13H244.412ZM252.74 16.23C252.649 16.23 252.57 16.196 252.502 16.128C252.434 16.06 252.4 15.9807 252.4 15.89C252.4 15.788 252.422 15.6973 252.468 15.618L253.794 12.473L250.53 4.772C250.484 4.67 250.462 4.59067 250.462 4.534C250.473 4.432 250.513 4.347 250.581 4.279C250.649 4.19967 250.734 4.16 250.836 4.16H252.213C252.428 4.16 252.581 4.26767 252.672 4.483L254.933 10.042L257.262 4.483C257.352 4.26767 257.505 4.16 257.721 4.16H259.081C259.171 4.16 259.251 4.194 259.319 4.262C259.398 4.33 259.438 4.40933 259.438 4.5C259.438 4.57933 259.415 4.67 259.37 4.772L254.559 15.907C254.457 16.1223 254.298 16.23 254.083 16.23H252.74ZM264.396 13.17C263.138 13.17 262.135 12.8073 261.387 12.082C260.65 11.3453 260.259 10.314 260.214 8.988L260.197 8.563L260.214 8.138C260.27 6.846 260.667 5.83167 261.404 5.095C262.152 4.35833 263.149 3.99 264.396 3.99C265.733 3.99 266.764 4.398 267.49 5.214C268.226 6.03 268.595 7.118 268.595 8.478V8.835C268.595 8.94833 268.555 9.04467 268.476 9.124C268.396 9.20333 268.294 9.243 268.17 9.243H262.526V9.379C262.548 10.0023 262.718 10.5293 263.036 10.96C263.364 11.3793 263.812 11.589 264.379 11.589C265.047 11.589 265.586 11.3283 265.994 10.807C266.096 10.6823 266.175 10.603 266.232 10.569C266.3 10.535 266.396 10.518 266.521 10.518H267.983C268.085 10.518 268.17 10.552 268.238 10.62C268.317 10.6767 268.357 10.7503 268.357 10.841C268.357 11.113 268.192 11.436 267.864 11.81C267.546 12.1727 267.087 12.49 266.487 12.762C265.886 13.034 265.189 13.17 264.396 13.17ZM266.283 7.815V7.764C266.283 7.09533 266.113 6.557 265.773 6.149C265.444 5.741 264.985 5.537 264.396 5.537C263.806 5.537 263.347 5.741 263.019 6.149C262.69 6.557 262.526 7.09533 262.526 7.764V7.815H266.283ZM272.966 13.17C272.388 13.17 271.856 13.0567 271.368 12.83C270.892 12.592 270.513 12.2747 270.229 11.878C269.957 11.4813 269.821 11.045 269.821 10.569C269.821 9.79833 270.133 9.175 270.756 8.699C271.38 8.223 272.235 7.9 273.323 7.73L275.652 7.39V7.033C275.652 6.53433 275.528 6.16033 275.278 5.911C275.029 5.66167 274.627 5.537 274.071 5.537C273.697 5.537 273.391 5.61067 273.153 5.758C272.927 5.894 272.745 6.03 272.609 6.166C272.473 6.31333 272.383 6.40967 272.337 6.455C272.292 6.591 272.207 6.659 272.082 6.659H270.773C270.671 6.659 270.581 6.625 270.501 6.557C270.433 6.489 270.399 6.39833 270.399 6.285C270.411 6.00167 270.547 5.67867 270.807 5.316C271.079 4.95333 271.493 4.64167 272.048 4.381C272.604 4.12033 273.284 3.99 274.088 3.99C275.426 3.99 276.4 4.29033 277.012 4.891C277.624 5.49167 277.93 6.27933 277.93 7.254V12.592C277.93 12.7053 277.891 12.8017 277.811 12.881C277.743 12.9603 277.647 13 277.522 13H276.145C276.032 13 275.936 12.9603 275.856 12.881C275.777 12.8017 275.737 12.7053 275.737 12.592V11.929C275.488 12.2917 275.131 12.592 274.666 12.83C274.213 13.0567 273.646 13.17 272.966 13.17ZM273.544 11.555C274.168 11.555 274.678 11.351 275.074 10.943C275.471 10.535 275.669 9.94 275.669 9.158V8.801L273.969 9.073C273.312 9.175 272.813 9.33933 272.473 9.566C272.145 9.79267 271.98 10.0703 271.98 10.399C271.98 10.7617 272.133 11.045 272.439 11.249C272.745 11.453 273.114 11.555 273.544 11.555ZM284.023 13C282.992 13 282.216 12.7337 281.694 12.201C281.184 11.657 280.929 10.8637 280.929 9.821V5.962H279.586C279.473 5.962 279.377 5.92233 279.297 5.843C279.218 5.75233 279.178 5.65033 279.178 5.537V4.568C279.178 4.45467 279.218 4.35833 279.297 4.279C279.377 4.19967 279.473 4.16 279.586 4.16H280.929V1.338C280.929 1.21333 280.969 1.117 281.048 1.049C281.128 0.969666 281.224 0.929999 281.337 0.929999H282.714C282.839 0.929999 282.935 0.969666 283.003 1.049C283.083 1.117 283.122 1.21333 283.122 1.338V4.16H285.247C285.372 4.16 285.468 4.19967 285.536 4.279C285.616 4.347 285.655 4.44333 285.655 4.568V5.537C285.655 5.66167 285.616 5.76367 285.536 5.843C285.457 5.92233 285.361 5.962 285.247 5.962H283.122V9.651C283.122 10.1383 283.207 10.5067 283.377 10.756C283.547 11.0053 283.831 11.13 284.227 11.13H285.4C285.514 11.13 285.61 11.1697 285.689 11.249C285.769 11.3283 285.808 11.4247 285.808 11.538V12.592C285.808 12.7053 285.769 12.8017 285.689 12.881C285.621 12.9603 285.525 13 285.4 13H284.023ZM287.775 9.702C287.662 9.702 287.566 9.66233 287.486 9.583C287.407 9.50367 287.367 9.40733 287.367 9.294V1.508C287.367 1.39467 287.407 1.29833 287.486 1.219C287.566 1.13967 287.662 1.1 287.775 1.1H289.152C289.277 1.1 289.373 1.13967 289.441 1.219C289.521 1.287 289.56 1.38333 289.56 1.508V9.294C289.56 9.40733 289.521 9.50367 289.441 9.583C289.373 9.66233 289.277 9.702 289.152 9.702H287.775ZM287.673 13C287.56 13 287.464 12.9603 287.384 12.881C287.305 12.8017 287.265 12.7053 287.265 12.592V11.011C287.265 10.8863 287.305 10.7843 287.384 10.705C287.464 10.6257 287.56 10.586 287.673 10.586H289.254C289.379 10.586 289.481 10.6257 289.56 10.705C289.64 10.7843 289.679 10.8863 289.679 11.011V12.592C289.679 12.7053 289.64 12.8017 289.56 12.881C289.481 12.9603 289.379 13 289.254 13H287.673Z" fill="#555555"/>
</svg>
